<?xml version="1.0" standalone="no"?>
<!DOCTYPE svg PUBLIC "-//W3C//DTD SVG 1.1//EN"
"http://www.w3.org/Graphics/SVG/1.1/DTD/svg11.dtd">

<svg width="462" height="342" view_box="0 0 462 342"
xmlns="http://www.w3.org/2000/svg"
xmlns:link="http://www.w3.org/1999/xlink">\n\n<desc>Généré par Mocodo 2.3.5 le Fri, 17 Nov 2017 23:12:17</desc>

<rect id="frame" x="0" y="0" width="462" height="342" fill="#f5f5f5" stroke="none" stroke-width="0"/>

<!-- Association POSTER -->
<line x1="249" y1="180" x2="249" y2="63" stroke="#bf812d" stroke-width="1.5"/>
<text x="255.0" y="108" fill="#01665e" font-family="Arial" font-size="12" onmouseover="show(evt,'émetteur')" onmouseout="hide(evt)" style="cursor: pointer;">0,N</text>
<line x1="409" y1="63" x2="249" y2="63" stroke="#bf812d" stroke-width="1.5"/>
<text x="346" y="80.0" fill="#01665e" font-family="Arial" font-size="12">1,N</text>
<line x1="71" y1="63" x2="249" y2="63" stroke="#bf812d" stroke-width="1.5"/>
<text x="123" y="80.0" fill="#01665e" font-family="Arial" font-size="12">1,1</text>
<g id="association-POSTER">
	<path d="M 274 35 a 14 14 90 0 1 14 14 V 62 h -78 V 49 a 14 14 90 0 1 14 -14" fill="#dfc27d" stroke="#dfc27d" stroke-width="0"/>
	<path d="M 288 62.0 v 15 a 14 14 90 0 1 -14 14 H 224 a 14 14 90 0 1 -14 -14 V 62.0 H 78" fill="#f6e8c3" stroke="#f6e8c3" stroke-width="0"/>
	<rect x="210" y="35" width="78" height="56" fill="none" rx="14" stroke="#bf812d" stroke-width="3"/>
	<line x1="210" y1="62" x2="288" y2="62" stroke="#bf812d" stroke-width="1.5"/>
	<text x="219" y="55.3" fill="#000000" font-family="Arial Black" font-size="13">POSTER</text>
</g>

<!-- Association CONSULTER -->
<line x1="71" y1="63" x2="71" y2="180" stroke="#bf812d" stroke-width="1.5"/>
<text x="77.0" y="134" fill="#01665e" font-family="Arial" font-size="12">0,N</text>
<line x1="249" y1="180" x2="71" y2="180" stroke="#bf812d" stroke-width="1.5"/>
<text x="139" y="197.0" fill="#01665e" font-family="Arial" font-size="12" onmouseover="show(evt,'lecteur')" onmouseout="hide(evt)" style="cursor: pointer;">0,N</text>
<g id="association-CONSULTER">
	<path d="M 119 152 a 14 14 90 0 1 14 14 V 179 h -124 V 166 a 14 14 90 0 1 14 -14" fill="#dfc27d" stroke="#dfc27d" stroke-width="0"/>
	<path d="M 133 179.0 v 15 a 14 14 90 0 1 -14 14 H 23 a 14 14 90 0 1 -14 -14 V 179.0 H 124" fill="#f6e8c3" stroke="#f6e8c3" stroke-width="0"/>
	<rect x="9" y="152" width="124" height="56" fill="none" rx="14" stroke="#bf812d" stroke-width="3"/>
	<line x1="9" y1="179" x2="133" y2="179" stroke="#bf812d" stroke-width="1.5"/>
	<text x="25" y="172.3" fill="#000000" font-family="Arial Black" font-size="13">CONSULTER</text>
	<text x="18" y="197.2" fill="#000000" font-family="Arial" font-size="14">statut de lecture</text>
</g>

<!-- Association APPARTENIR -->
<line x1="249" y1="180" x2="249" y2="297" stroke="#bf812d" stroke-width="1.5"/>
<text x="255.0" y="260" fill="#01665e" font-family="Arial" font-size="12">1,N</text>
<line x1="409" y1="297" x2="249" y2="297" stroke="#bf812d" stroke-width="1.5"/>
<text x="343" y="314.0" fill="#01665e" font-family="Arial" font-size="12">0,N</text>
<g id="association-APPARTENIR">
	<path d="M 292 269 a 14 14 90 0 1 14 14 V 296 h -114 V 283 a 14 14 90 0 1 14 -14" fill="#dfc27d" stroke="#dfc27d" stroke-width="0"/>
	<path d="M 306 296.0 v 15 a 14 14 90 0 1 -14 14 H 206 a 14 14 90 0 1 -14 -14 V 296.0 H 114" fill="#f6e8c3" stroke="#f6e8c3" stroke-width="0"/>
	<rect x="192" y="269" width="114" height="56" fill="none" rx="14" stroke="#bf812d" stroke-width="3"/>
	<line x1="192" y1="296" x2="306" y2="296" stroke="#bf812d" stroke-width="1.5"/>
	<text x="201" y="289.3" fill="#000000" font-family="Arial Black" font-size="13">APPARTENIR</text>
</g>

<!-- Association ÉMETTRE -->
<line x1="249" y1="180" x2="409" y2="180" stroke="#bf812d" stroke-width="1.5"/>
<text x="338" y="197.0" fill="#01665e" font-family="Arial" font-size="12" onmouseover="show(evt,'créateur')" onmouseout="hide(evt)" style="cursor: pointer;">0,N</text>
<line x1="409" y1="297" x2="409" y2="180" stroke="#bf812d" stroke-width="1.5"/>
<text x="415.0" y="252" fill="#01665e" font-family="Arial" font-size="12">0,N</text>
<line x1="409" y1="63" x2="409" y2="180" stroke="#bf812d" stroke-width="1.5"/>
<text x="415.0" y="125" fill="#01665e" font-family="Arial" font-size="12">1,1</text>
<g id="association-ÉMETTRE">
	<path d="M 439 152 a 14 14 90 0 1 14 14 V 179 h -88 V 166 a 14 14 90 0 1 14 -14" fill="#dfc27d" stroke="#dfc27d" stroke-width="0"/>
	<path d="M 453 179.0 v 15 a 14 14 90 0 1 -14 14 H 379 a 14 14 90 0 1 -14 -14 V 179.0 H 88" fill="#f6e8c3" stroke="#f6e8c3" stroke-width="0"/>
	<rect x="365" y="152" width="88" height="56" fill="none" rx="14" stroke="#bf812d" stroke-width="3"/>
	<line x1="365" y1="179" x2="453" y2="179" stroke="#bf812d" stroke-width="1.5"/>
	<text x="374" y="172.3" fill="#000000" font-family="Arial Black" font-size="13">ÉMETTRE</text>
</g>

<!-- Entity GROUPE -->
<g id="entity-GROUPE">
	<g id="frame-GROUPE">
		<rect x="370" y="261" width="78" height="28" fill="#80cdc1" stroke="#80cdc1" stroke-width="0"/>
		<rect x="370" y="289.0" width="78" height="44" fill="#c7eae5" stroke="#c7eae5" stroke-width="0"/>
		<rect x="370" y="261" width="78" height="72" fill="none" stroke="#35978f" stroke-width="3"/>
		<line x1="370" y1="289" x2="448" y2="289" stroke="#35978f" stroke-width="1.5"/>
	</g>
	<text x="378" y="281.3" fill="#000000" font-family="Arial Black" font-size="13">GROUPE</text>
	<text x="378" y="305.2" fill="#000000" font-family="Arial" font-size="14">id groupe</text>
	<line x1="378" y1="308" x2="440" y2="308" stroke="#000000" stroke-width="1.2"/>
	<text x="378" y="323.2" fill="#000000" font-family="Arial" font-size="14">nom</text>
</g>

<!-- Entity MESSAGE -->
<g id="entity-MESSAGE">
	<g id="frame-MESSAGE">
		<rect x="25" y="9" width="92" height="28" fill="#80cdc1" stroke="#80cdc1" stroke-width="0"/>
		<rect x="25" y="37.0" width="92" height="80" fill="#c7eae5" stroke="#c7eae5" stroke-width="0"/>
		<rect x="25" y="9" width="92" height="108" fill="none" stroke="#35978f" stroke-width="3"/>
		<line x1="25" y1="37" x2="117" y2="37" stroke="#35978f" stroke-width="1.5"/>
	</g>
	<text x="35" y="29.3" fill="#000000" font-family="Arial Black" font-size="13">MESSAGE</text>
	<text x="33" y="53.2" fill="#000000" font-family="Arial" font-size="14">id message</text>
	<line x1="33" y1="56" x2="109" y2="56" stroke="#000000" stroke-width="1.2"/>
	<text x="33" y="71.2" fill="#000000" font-family="Arial" font-size="14">titre</text>
	<text x="33" y="89.2" fill="#000000" font-family="Arial" font-size="14">texte</text>
	<text x="33" y="107.2" fill="#000000" font-family="Arial" font-size="14">date</text>
</g>

<!-- Entity TICKET -->
<g id="entity-TICKET">
	<g id="frame-TICKET">
		<rect x="373" y="18" width="72" height="28" fill="#80cdc1" stroke="#80cdc1" stroke-width="0"/>
		<rect x="373" y="46.0" width="72" height="62" fill="#c7eae5" stroke="#c7eae5" stroke-width="0"/>
		<rect x="373" y="18" width="72" height="90" fill="none" stroke="#35978f" stroke-width="3"/>
		<line x1="373" y1="46" x2="445" y2="46" stroke="#35978f" stroke-width="1.5"/>
	</g>
	<text x="381" y="38.3" fill="#000000" font-family="Arial Black" font-size="13">TICKET</text>
	<text x="381" y="62.2" fill="#000000" font-family="Arial" font-size="14">id ticket</text>
	<line x1="381" y1="65" x2="432" y2="65" stroke="#000000" stroke-width="1.2"/>
	<text x="381" y="80.2" fill="#000000" font-family="Arial" font-size="14">titre</text>
	<text x="381" y="98.2" fill="#000000" font-family="Arial" font-size="14">date</text>
</g>

<!-- Entity UTILISATEUR -->
<g id="entity-UTILISATEUR">
	<g id="frame-UTILISATEUR">
		<rect x="166" y="117" width="166" height="28" fill="#80cdc1" stroke="#80cdc1" stroke-width="0"/>
		<rect x="166" y="145.0" width="166" height="98" fill="#c7eae5" stroke="#c7eae5" stroke-width="0"/>
		<rect x="166" y="117" width="166" height="126" fill="none" stroke="#35978f" stroke-width="3"/>
		<line x1="166" y1="145" x2="332" y2="145" stroke="#35978f" stroke-width="1.5"/>
	</g>
	<text x="199" y="137.3" fill="#000000" font-family="Arial Black" font-size="13">UTILISATEUR</text>
	<text x="174" y="161.2" fill="#000000" font-family="Arial" font-size="14">uid</text>
	<line x1="174" y1="164" x2="195" y2="164" stroke="#000000" stroke-width="1.2"/>
	<text x="174" y="179.2" fill="#000000" font-family="Arial" font-size="14">mot de passe</text>
	<text x="174" y="197.2" fill="#000000" font-family="Arial" font-size="14">nom</text>
	<text x="174" y="215.2" fill="#000000" font-family="Arial" font-size="14">renseignements variés</text>
	<text x="174" y="233.2" fill="#000000" font-family="Arial" font-size="14">est admin ?</text>
</g>

<!-- Annotations -->
<script type="text/ecmascript">
<![CDATA[
	function show(evt, text) {
		var pos = (evt.target.getAttribute("y") < 296) ? "bottom" : "top"
		var annotation = document.getElementById(pos + "_annotation_EfR2DIAF")
		annotation.textContent = text
		annotation.setAttributeNS(null, "visibility", "visible");
		document.getElementById(pos + "_overlay_EfR2DIAF").setAttributeNS(null, "visibility", "visible");
	}
	function hide(evt) {
		document.getElementById("top_annotation_EfR2DIAF").setAttributeNS(null, "visibility", "hidden");
		document.getElementById("top_overlay_EfR2DIAF").setAttributeNS(null, "visibility", "hidden");
		document.getElementById("bottom_annotation_EfR2DIAF").setAttributeNS(null, "visibility", "hidden");
		document.getElementById("bottom_overlay_EfR2DIAF").setAttributeNS(null, "visibility", "hidden");
	}
]]>
</script>
<rect id="top_overlay_EfR2DIAF" x="0" y="0" width="462" height="40" fill="#8c510a" stroke-width="0" opacity="0.9" visibility="hidden"/>
<text id="top_annotation_EfR2DIAF" text-anchor="middle" x="231.0" y="24" fill="#f5f5f5" font-family="Arial Black" font-size="13" visibility="hidden"></text>
<rect id="bottom_overlay_EfR2DIAF" x="0" y="302" width="462" height="40" fill="#8c510a" stroke-width="0" opacity="0.9" visibility="hidden"/>
<text id="bottom_annotation_EfR2DIAF" text-anchor="middle" x="231.0" y="326" fill="#f5f5f5" font-family="Arial Black" font-size="13" visibility="hidden"></text>
</svg>